<?xml version="1.0" encoding="UTF-8"?>
<svg id="Layer_1" data-name="Layer 1" xmlns="http://www.w3.org/2000/svg" width="939" height="344" viewBox="0 0 939 344">
  <defs>
    <style>
      .cls-1 {
        fill: #6dbf5a;
      }

      .cls-2 {
        fill: #5451a2;
      }

      .cls-3 {
        fill: #c65da3;
      }

      .cls-4 {
        fill: #1c202d;
        font-family: Barge-Regular, Barge;
        font-size: 189px;
      }
    </style>
  </defs>
  <rect class="cls-1" width="939" height="344"/>
  <path class="cls-2" d="m1061.55-115.65c-19.21-1.95-42.78,15.79-62.78,47.29-6.88,10.83-13.4,23.25-20.64,32.31-29.51,36.89-60.85,7.11-88.11,53.75-16.6,28.41-23.12,72.41-39.16,102.31-11.52,21.49-25.91,31.67-38.68,35.83-12.77,4.16-24.83,3.48-37.76,8.94-20.32,8.58-42.3,32.79-60.42,66.51-10.93,20.35-20.76,44.41-32.96,60.04-12.7,16.26-25.94,20.84-38.84,27.76s-27.47,18.65-37.53,42.18c55.01,5.33,108.68,16.56,160.74,33.64,2.51.82,5.19,1.62,8.17-.78,3.7-2.98,6.91-10.04,9.97-16.38,15.15-31.4,34.24-55.33,52.4-65.68,22.27-12.69,46.06-8.9,65.65-45.3,13.04-24.23,18.95-57.84,30.8-84.33,28.98-64.79,75-53.5,106.61-113.43,8.37-15.87,14.9-35.46,23.71-50.18,10.12-16.91,22.1-25.3,32.6-27.25s19.82,1.85,29.01,5.64c4.11-24.55,8.26-49.59,8.5-72.19s-4.1-42.76-14.07-47.69c-9.19-4.54-21.26,4.19-32.48,10.07-11.22,5.89-23.48,8.18-28.3-6.51"/>
  <path class="cls-2" d="m398.22-115.65c-19.21-1.95-42.78,15.79-62.78,47.29-6.88,10.83-13.4,23.25-20.64,32.31-29.51,36.89-60.85,7.11-88.11,53.75-16.6,28.41-23.12,72.41-39.16,102.31-11.52,21.49-25.91,31.67-38.68,35.83-12.77,4.16-24.83,3.48-37.76,8.94-20.32,8.58-42.3,32.79-60.42,66.51-10.93,20.35-20.76,44.41-32.96,60.04-12.7,16.26-25.94,20.84-38.84,27.76-12.91,6.93-27.47,18.65-37.53,42.18,55.01,5.33,108.68,16.56,160.74,33.64,2.51.82,5.19,1.62,8.17-.78,3.7-2.98,6.91-10.04,9.97-16.38,15.15-31.4,34.24-55.33,52.4-65.68,22.27-12.69,46.06-8.9,65.65-45.3,13.04-24.23,18.95-57.84,30.8-84.33,28.98-64.79,75-53.5,106.61-113.43,8.37-15.87,14.9-35.46,23.71-50.18,10.12-16.91,22.1-25.3,32.6-27.25,10.5-1.95,19.82,1.85,29.01,5.64,4.11-24.55,8.26-49.59,8.5-72.19s-4.1-42.76-14.07-47.69c-9.19-4.54-21.26,4.19-32.48,10.07-11.22,5.89-23.48,8.18-28.3-6.51"/>
  <path class="cls-3" d="m94.05-13.02c28.9,1.93,56.66,17.04,73.96,40.26,5.95,7.99,10.77,16.92,17.93,23.84,29.18,28.2,86.44,14.52,108.6,48.52,13.5,20.71,6.28,49.62,18.37,71.18,8.69,15.49,25.89,24.31,43.01,29.04,17.12,4.73,35.06,6.29,51.92,11.87,26.5,8.77,49.49,27.71,63.17,52.03,8.26,14.68,13.48,31.52,25.41,43.42,12.4,12.38,30.06,17.45,46.33,23.96,16.27,6.51,33.13,16.32,38.91,32.87-82.63-5.69-165.54-7.41-248.34-5.18-3.99.11-8.22.17-11.67-1.84-4.29-2.49-6.3-7.49-8.36-12.01-10.23-22.36-29.08-40.65-51.74-50.19-27.79-11.7-64.09-13.21-78.92-39.47-9.87-17.48-5.72-39.72-12.98-58.43-17.77-45.77-89.5-46.2-112.96-89.32-6.21-11.42-8.32-24.89-15.61-35.66-8.37-12.37-22.74-19.65-37.38-22.61-14.64-2.96-29.75-2.09-44.66-1.21,3.34-16.21,6.8-32.74,15.06-47.08C-17.62-13.35-3.58-25.39,12.91-26.87c15.19-1.36,29.55,6.15,43.75,11.72,14.2,5.57,31.28,9.04,43.94.54"/>
  <path class="cls-3" d="m604.49-69.22c28.9,2.2,56.66,19.45,73.96,45.97,5.95,9.12,10.77,19.32,17.93,27.23,29.18,32.2,86.44,16.58,108.6,55.4,13.5,23.65,6.28,56.67,18.37,81.29,8.69,17.69,25.89,27.76,43.01,33.16,17.12,5.41,35.06,7.18,51.92,13.56,26.5,10.02,49.49,31.64,63.17,59.42,8.26,16.76,13.48,35.99,25.41,49.58,12.4,14.14,30.06,19.93,46.33,27.36,16.27,7.43,33.13,18.64,38.91,37.53-82.63-6.49-165.54-8.47-248.34-5.91-3.99.12-8.22.19-11.67-2.1-4.29-2.85-6.3-8.56-8.36-13.71-10.23-25.54-29.08-46.42-51.74-57.31-27.79-13.36-64.09-15.09-78.92-45.07-9.87-19.96-5.72-45.36-12.98-66.72-17.77-52.27-89.5-52.76-112.96-102-6.21-13.04-8.32-28.42-15.61-40.72-8.37-14.12-22.74-22.44-37.38-25.82-14.64-3.38-29.75-2.39-44.66-1.38,3.34-18.51,6.8-37.38,15.06-53.76,8.26-16.38,22.31-30.13,38.79-31.81,15.19-1.56,29.55,7.02,43.75,13.38,14.2,6.36,31.28,10.33,43.94.61"/>
  <text class="cls-4" transform="translate(94.6 333.56)"><tspan x="0" y="0">the arcade</tspan></text>
</svg>